<svg width="1280" height="514" viewBox="0 0 1280 514" fill="none" xmlns="http://www.w3.org/2000/svg">
<g clip-path="url(#clip0_24_11)">
<rect width="1280" height="514" rx="32" fill="white"/>
<path fill-rule="evenodd" clip-rule="evenodd" d="M610.688 276C602.338 276 594.487 274.354 587.136 271.063C579.785 267.714 573.317 263.1 567.73 257.223C562.202 251.346 557.851 244.558 554.675 236.86C551.558 229.102 550 220.815 550 212C550 203.126 551.558 194.839 554.675 187.14C557.851 179.383 562.202 172.595 567.73 166.777C573.317 160.9 579.785 156.316 587.136 153.025C594.487 149.675 602.338 148 610.688 148C620.685 148 629.888 150.321 638.298 154.964C642.91 157.478 647.088 160.461 650.833 163.911C655.725 159.389 661.225 155.76 667.335 153.025C674.686 149.675 682.537 148 690.887 148C699.297 148 707.177 149.675 714.527 153.025C721.707 156.239 728.044 160.687 733.541 166.367C737.887 160.577 743.607 156.07 750.699 152.848C757.873 149.616 765.606 148 773.898 148C780.837 148 787.482 149.117 793.833 151.35C800.243 153.524 805.83 156.698 810.593 160.871C814.352 164.163 817.269 167.969 819.343 172.287L823.619 150.292H846.201L873.899 223.107L901.596 150.292H924.178L928.893 174.546C930.791 171.796 932.894 169.206 935.203 166.777C940.79 160.9 947.258 156.316 954.609 153.025C961.96 149.675 969.81 148 978.161 148C986.57 148 994.45 149.675 1001.8 153.025C1009.15 156.316 1015.62 160.9 1021.21 166.777C1026.79 172.654 1031.15 179.471 1034.26 187.229C1037.44 194.927 1039.03 203.185 1039.03 212C1039.03 220.815 1037.44 229.102 1034.26 236.86C1031.15 244.558 1026.79 251.346 1021.21 257.223C1015.62 263.1 1009.15 267.714 1001.8 271.063C994.45 274.354 986.57 276 978.161 276C969.81 276 961.96 274.354 954.609 271.063C951.898 269.828 949.307 268.421 946.836 266.842L948.171 273.708H921.179L908.3 207.063L883.072 273.708H864.725L839.497 207.063L826.618 273.708H799.626L800.438 269.533C799.389 270.103 798.304 270.643 797.185 271.152C790.07 274.384 782.307 276 773.898 276C766.959 276 760.314 274.913 753.963 272.738C747.612 270.505 742.054 267.332 737.291 263.218C735.599 261.735 734.074 260.153 732.716 258.47C727.413 263.757 721.35 267.954 714.527 271.063C707.177 274.354 699.297 276 690.887 276C682.537 276 674.686 274.354 667.335 271.063C661.215 268.274 655.706 264.609 650.808 260.068C647.07 263.506 642.899 266.495 638.298 269.036C629.888 273.679 620.685 276 610.688 276ZM610.688 174.446C615.628 174.446 620.244 175.504 624.537 177.62C628.737 179.69 632.347 182.435 635.365 185.856C635.168 186.31 634.975 186.768 634.786 187.229C631.61 194.927 630.023 203.185 630.023 212C630.023 220.815 631.61 229.102 634.786 236.86C634.951 237.261 635.12 237.659 635.292 238.055C632.289 241.495 628.704 244.27 624.537 246.38C620.244 248.496 615.628 249.554 610.688 249.554C605.984 249.554 601.544 248.584 597.369 246.645C593.252 244.646 589.606 241.943 586.431 238.534C583.314 235.067 580.873 231.071 579.109 226.545C577.345 222.02 576.463 217.172 576.463 212C576.463 206.77 577.345 201.892 579.109 197.366C580.873 192.841 583.314 188.874 586.431 185.466C589.606 181.998 593.252 179.295 597.369 177.355C601.544 175.416 605.984 174.446 610.688 174.446ZM704.119 246.645C700.002 248.584 695.592 249.554 690.887 249.554C686.183 249.554 681.743 248.584 677.568 246.645C673.451 244.646 669.805 241.943 666.63 238.534C663.454 235.067 660.955 231.071 659.132 226.545C657.368 222.02 656.485 217.172 656.485 212C656.485 206.828 657.368 201.98 659.132 197.455C660.955 192.929 663.454 188.962 666.63 185.554C669.805 182.086 673.451 179.383 677.568 177.444C681.743 175.445 686.183 174.446 690.887 174.446C695.592 174.446 700.002 175.445 704.119 177.444C708.294 179.383 711.969 182.086 715.145 185.554C718.32 188.962 720.79 192.929 722.554 197.455C724.377 201.98 725.289 206.828 725.289 212C725.289 217.172 724.377 222.02 722.554 226.545C720.79 231.071 718.32 235.067 715.145 238.534C711.969 241.943 708.294 244.646 704.119 246.645ZM755.727 244.088C753.727 242.501 752.434 240.856 751.846 239.152H746.012C746.35 238.397 746.676 237.633 746.989 236.86C749.248 231.339 750.704 225.55 751.356 219.493C758.084 222.113 765.598 224.023 773.898 225.223C777.191 225.693 780.396 226.428 783.513 227.427C786.688 228.367 789.276 229.66 791.275 231.306C793.333 232.893 794.363 234.92 794.363 237.388C794.363 239.798 793.392 241.914 791.452 243.736C789.511 245.557 786.982 246.997 783.866 248.055C780.749 249.054 777.426 249.554 773.898 249.554C770.076 249.554 766.606 249.054 763.489 248.055C760.372 246.997 757.785 245.675 755.727 244.088ZM791.981 180C794.039 181.528 795.362 183.144 795.95 184.848H816.901L811.13 214.533C807.338 210.865 802.719 207.817 797.273 205.388C790.158 202.215 782.366 200.011 773.898 198.777C770.193 198.248 766.782 197.66 763.666 197.014C760.608 196.367 758.138 195.28 756.256 193.752C754.374 192.165 753.433 189.785 753.433 186.612C753.433 184.32 754.433 182.263 756.432 180.441C758.432 178.619 760.99 177.179 764.107 176.121C767.223 175.063 770.487 174.564 773.898 174.623C777.72 174.623 781.19 175.122 784.307 176.121C787.423 177.12 789.982 178.413 791.981 180ZM991.392 246.645C987.276 248.584 982.866 249.554 978.161 249.554C973.457 249.554 969.017 248.584 964.841 246.645C960.725 244.646 957.079 241.943 953.903 238.534C950.728 235.067 948.229 231.071 946.406 226.545C944.641 222.02 943.759 217.172 943.759 212C943.759 206.828 944.641 201.98 946.406 197.455C948.229 192.929 950.728 188.962 953.903 185.554C957.079 182.086 960.725 179.383 964.841 177.444C969.017 175.445 973.457 174.446 978.161 174.446C982.866 174.446 987.276 175.445 991.392 177.444C995.568 179.383 999.243 182.086 1002.42 185.554C1005.59 188.962 1008.06 192.929 1009.83 197.455C1011.65 201.98 1012.56 206.828 1012.56 212C1012.56 217.172 1011.65 222.02 1009.83 226.545C1008.06 231.071 1005.59 235.067 1002.42 238.534C999.243 241.943 995.568 244.646 991.392 246.645Z" fill="black"/>
<path d="M493.88 354V320.4H497.528L515.264 347.928V320.4H518.624V354H515L497.24 326.472V354H493.88ZM523.436 344.808V330H526.796V344.136C526.796 345.448 527.116 346.64 527.756 347.712C528.396 348.784 529.252 349.64 530.324 350.28C531.412 350.92 532.604 351.24 533.9 351.24C535.212 351.24 536.396 350.92 537.452 350.28C538.524 349.64 539.38 348.784 540.02 347.712C540.66 346.64 540.98 345.448 540.98 344.136V330H544.34L544.364 354H541.004L540.98 350.64C540.132 351.856 539.028 352.824 537.668 353.544C536.324 354.264 534.852 354.624 533.252 354.624C531.444 354.624 529.796 354.184 528.308 353.304C526.82 352.424 525.636 351.24 524.756 349.752C523.876 348.264 523.436 346.616 523.436 344.808ZM559.518 354.624C557.31 354.624 555.294 354.056 553.47 352.92C551.662 351.784 550.214 350.264 549.126 348.36C548.054 346.44 547.518 344.32 547.518 342C547.518 340.24 547.83 338.6 548.454 337.08C549.078 335.544 549.934 334.2 551.022 333.048C552.126 331.88 553.406 330.968 554.862 330.312C556.318 329.656 557.87 329.328 559.518 329.328C561.294 329.328 562.926 329.68 564.414 330.384C565.918 331.088 567.206 332.072 568.278 333.336C569.366 334.6 570.182 336.08 570.726 337.776C571.286 339.472 571.518 341.304 571.422 343.272H551.07C551.262 344.792 551.742 346.152 552.51 347.352C553.294 348.552 554.286 349.504 555.486 350.208C556.702 350.896 558.046 351.248 559.518 351.264C561.118 351.264 562.558 350.848 563.838 350.016C565.134 349.184 566.174 348.04 566.958 346.584L570.366 347.376C569.406 349.504 567.958 351.248 566.022 352.608C564.086 353.952 561.918 354.624 559.518 354.624ZM550.974 340.56H568.038C567.926 339.072 567.47 337.712 566.67 336.48C565.886 335.232 564.87 334.24 563.622 333.504C562.374 332.752 561.006 332.376 559.518 332.376C558.03 332.376 556.67 332.744 555.438 333.48C554.206 334.2 553.198 335.184 552.414 336.432C551.63 337.664 551.15 339.04 550.974 340.56ZM582.999 354.456C581.687 354.424 580.407 354.184 579.159 353.736C577.911 353.288 576.823 352.68 575.895 351.912C574.967 351.144 574.303 350.272 573.903 349.296L576.807 348.048C577.063 348.672 577.535 349.248 578.223 349.776C578.927 350.288 579.727 350.704 580.623 351.024C581.519 351.328 582.407 351.48 583.287 351.48C584.263 351.48 585.175 351.32 586.023 351C586.871 350.68 587.559 350.224 588.087 349.632C588.631 349.024 588.903 348.312 588.903 347.496C588.903 346.616 588.615 345.928 588.039 345.432C587.463 344.92 586.735 344.52 585.855 344.232C584.975 343.928 584.071 343.64 583.143 343.368C581.447 342.904 579.951 342.392 578.655 341.832C577.359 341.272 576.343 340.56 575.607 339.696C574.887 338.816 574.527 337.688 574.527 336.312C574.527 334.856 574.935 333.6 575.751 332.544C576.583 331.472 577.663 330.648 578.991 330.072C580.335 329.48 581.767 329.184 583.287 329.184C585.239 329.184 587.015 329.608 588.615 330.456C590.231 331.304 591.399 332.432 592.119 333.84L589.407 335.448C589.119 334.792 588.663 334.224 588.039 333.744C587.415 333.264 586.703 332.888 585.903 332.616C585.119 332.344 584.319 332.2 583.503 332.184C582.479 332.168 581.527 332.32 580.647 332.64C579.767 332.944 579.055 333.4 578.511 334.008C577.983 334.616 577.719 335.36 577.719 336.24C577.719 337.12 577.983 337.792 578.511 338.256C579.039 338.704 579.751 339.072 580.647 339.36C581.559 339.632 582.583 339.952 583.719 340.32C585.175 340.784 586.543 341.312 587.823 341.904C589.103 342.496 590.135 343.232 590.919 344.112C591.703 344.992 592.087 346.104 592.071 347.448C592.071 348.888 591.639 350.144 590.775 351.216C589.911 352.288 588.791 353.112 587.415 353.688C586.039 354.248 584.567 354.504 582.999 354.456ZM608.472 333.36H602.736L602.712 354H599.352L599.376 333.36H595.032V330H599.376L599.352 322.464H602.712L602.736 330H608.472V333.36ZM612.755 354V330H616.115V333.312C616.963 332.096 618.067 331.128 619.427 330.408C620.787 329.688 622.267 329.328 623.867 329.328C624.795 329.328 625.691 329.448 626.555 329.688L625.187 333.024C624.515 332.816 623.859 332.712 623.219 332.712C621.923 332.712 620.731 333.032 619.643 333.672C618.571 334.312 617.715 335.168 617.075 336.24C616.435 337.312 616.115 338.504 616.115 339.816V354H612.755ZM638.878 354.624C636.67 354.624 634.654 354.056 632.83 352.92C631.022 351.784 629.574 350.264 628.486 348.36C627.414 346.44 626.878 344.32 626.878 342C626.878 340.24 627.19 338.6 627.814 337.08C628.438 335.544 629.294 334.2 630.382 333.048C631.486 331.88 632.766 330.968 634.222 330.312C635.678 329.656 637.23 329.328 638.878 329.328C641.086 329.328 643.094 329.896 644.902 331.032C646.726 332.168 648.174 333.696 649.246 335.616C650.334 337.536 650.878 339.664 650.878 342C650.878 343.744 650.566 345.376 649.942 346.896C649.318 348.416 648.454 349.76 647.35 350.928C646.262 352.08 644.99 352.984 643.534 353.64C642.094 354.296 640.542 354.624 638.878 354.624ZM638.878 351.264C640.51 351.264 641.974 350.84 643.27 349.992C644.582 349.128 645.614 347.992 646.366 346.584C647.134 345.176 647.518 343.648 647.518 342C647.518 340.32 647.134 338.776 646.366 337.368C645.598 335.944 644.558 334.808 643.246 333.96C641.95 333.112 640.494 332.688 638.878 332.688C637.246 332.688 635.774 333.12 634.462 333.984C633.166 334.832 632.134 335.96 631.366 337.368C630.614 338.776 630.238 340.32 630.238 342C630.238 343.728 630.63 345.296 631.414 346.704C632.198 348.096 633.246 349.208 634.558 350.04C635.87 350.856 637.31 351.264 638.878 351.264ZM665.748 344.808V330H669.108V344.136C669.108 345.448 669.428 346.64 670.068 347.712C670.708 348.784 671.564 349.64 672.636 350.28C673.724 350.92 674.916 351.24 676.212 351.24C677.524 351.24 678.708 350.92 679.764 350.28C680.836 349.64 681.692 348.784 682.332 347.712C682.972 346.64 683.292 345.448 683.292 344.136V330H686.652L686.676 354H683.316L683.292 350.64C682.444 351.856 681.34 352.824 679.98 353.544C678.636 354.264 677.164 354.624 675.564 354.624C673.756 354.624 672.108 354.184 670.62 353.304C669.132 352.424 667.948 351.24 667.068 349.752C666.188 348.264 665.748 346.616 665.748 344.808ZM712.386 339.144V354H709.026V339.816C709.026 338.504 708.706 337.312 708.066 336.24C707.426 335.168 706.57 334.312 705.498 333.672C704.426 333.032 703.234 332.712 701.922 332.712C700.626 332.712 699.434 333.032 698.346 333.672C697.274 334.312 696.418 335.168 695.778 336.24C695.138 337.312 694.818 338.504 694.818 339.816V354H691.458V330H694.818V333.312C695.666 332.096 696.77 331.128 698.13 330.408C699.49 329.688 700.97 329.328 702.57 329.328C704.378 329.328 706.026 329.768 707.514 330.648C709.002 331.528 710.186 332.712 711.066 334.2C711.946 335.688 712.386 337.336 712.386 339.144ZM717.193 330H720.553V354H717.193V330ZM718.897 325.8C718.353 325.8 717.889 325.624 717.505 325.272C717.137 324.904 716.953 324.448 716.953 323.904C716.953 323.36 717.137 322.912 717.505 322.56C717.889 322.192 718.353 322.008 718.897 322.008C719.425 322.008 719.873 322.192 720.241 322.56C720.625 322.912 720.817 323.36 720.817 323.904C720.817 324.448 720.633 324.904 720.265 325.272C719.897 325.624 719.441 325.8 718.897 325.8ZM737.597 354H733.325L724.565 329.928H728.141L735.461 350.064L742.781 329.928H746.357L737.597 354ZM759.956 354.624C757.748 354.624 755.732 354.056 753.908 352.92C752.1 351.784 750.652 350.264 749.564 348.36C748.492 346.44 747.956 344.32 747.956 342C747.956 340.24 748.268 338.6 748.892 337.08C749.516 335.544 750.372 334.2 751.46 333.048C752.564 331.88 753.844 330.968 755.3 330.312C756.756 329.656 758.308 329.328 759.956 329.328C761.732 329.328 763.364 329.68 764.852 330.384C766.356 331.088 767.644 332.072 768.716 333.336C769.804 334.6 770.62 336.08 771.164 337.776C771.724 339.472 771.956 341.304 771.86 343.272H751.508C751.7 344.792 752.18 346.152 752.948 347.352C753.732 348.552 754.724 349.504 755.924 350.208C757.14 350.896 758.484 351.248 759.956 351.264C761.556 351.264 762.996 350.848 764.276 350.016C765.572 349.184 766.612 348.04 767.396 346.584L770.804 347.376C769.844 349.504 768.396 351.248 766.46 352.608C764.524 353.952 762.356 354.624 759.956 354.624ZM751.412 340.56H768.476C768.364 339.072 767.908 337.712 767.108 336.48C766.324 335.232 765.308 334.24 764.06 333.504C762.812 332.752 761.444 332.376 759.956 332.376C758.468 332.376 757.108 332.744 755.876 333.48C754.644 334.2 753.636 335.184 752.852 336.432C752.068 337.664 751.588 339.04 751.412 340.56ZM775.974 354V330H779.334V333.312C780.182 332.096 781.286 331.128 782.646 330.408C784.006 329.688 785.486 329.328 787.086 329.328C788.014 329.328 788.91 329.448 789.774 329.688L788.406 333.024C787.734 332.816 787.078 332.712 786.438 332.712C785.142 332.712 783.95 333.032 782.862 333.672C781.79 334.312 780.934 335.168 780.294 336.24C779.654 337.312 779.334 338.504 779.334 339.816V354H775.974ZM800.218 354.456C798.906 354.424 797.626 354.184 796.378 353.736C795.13 353.288 794.042 352.68 793.114 351.912C792.186 351.144 791.522 350.272 791.122 349.296L794.026 348.048C794.282 348.672 794.754 349.248 795.442 349.776C796.146 350.288 796.946 350.704 797.842 351.024C798.738 351.328 799.626 351.48 800.506 351.48C801.482 351.48 802.394 351.32 803.242 351C804.09 350.68 804.778 350.224 805.306 349.632C805.85 349.024 806.122 348.312 806.122 347.496C806.122 346.616 805.834 345.928 805.258 345.432C804.682 344.92 803.954 344.52 803.074 344.232C802.194 343.928 801.29 343.64 800.362 343.368C798.666 342.904 797.17 342.392 795.874 341.832C794.578 341.272 793.562 340.56 792.826 339.696C792.106 338.816 791.746 337.688 791.746 336.312C791.746 334.856 792.154 333.6 792.97 332.544C793.802 331.472 794.882 330.648 796.21 330.072C797.554 329.48 798.986 329.184 800.506 329.184C802.458 329.184 804.234 329.608 805.834 330.456C807.45 331.304 808.618 332.432 809.338 333.84L806.626 335.448C806.338 334.792 805.882 334.224 805.258 333.744C804.634 333.264 803.922 332.888 803.122 332.616C802.338 332.344 801.538 332.2 800.722 332.184C799.698 332.168 798.746 332.32 797.866 332.64C796.986 332.944 796.274 333.4 795.73 334.008C795.202 334.616 794.938 335.36 794.938 336.24C794.938 337.12 795.202 337.792 795.73 338.256C796.258 338.704 796.97 339.072 797.866 339.36C798.778 339.632 799.802 339.952 800.938 340.32C802.394 340.784 803.762 341.312 805.042 341.904C806.322 342.496 807.354 343.232 808.138 344.112C808.922 344.992 809.306 346.104 809.29 347.448C809.29 348.888 808.858 350.144 807.994 351.216C807.13 352.288 806.01 353.112 804.634 353.688C803.258 354.248 801.786 354.504 800.218 354.456ZM823.799 354.624C821.591 354.624 819.575 354.056 817.751 352.92C815.943 351.784 814.495 350.264 813.407 348.36C812.335 346.44 811.799 344.32 811.799 342C811.799 340.24 812.111 338.6 812.735 337.08C813.359 335.544 814.215 334.2 815.303 333.048C816.407 331.88 817.687 330.968 819.143 330.312C820.599 329.656 822.151 329.328 823.799 329.328C826.007 329.328 828.015 329.896 829.823 331.032C831.647 332.168 833.095 333.696 834.167 335.616C835.255 337.536 835.799 339.664 835.799 342C835.799 343.744 835.487 345.376 834.863 346.896C834.239 348.416 833.375 349.76 832.271 350.928C831.183 352.08 829.911 352.984 828.455 353.64C827.015 354.296 825.463 354.624 823.799 354.624ZM823.799 351.264C825.431 351.264 826.895 350.84 828.191 349.992C829.503 349.128 830.535 347.992 831.287 346.584C832.055 345.176 832.439 343.648 832.439 342C832.439 340.32 832.055 338.776 831.287 337.368C830.519 335.944 829.479 334.808 828.167 333.96C826.871 333.112 825.415 332.688 823.799 332.688C822.167 332.688 820.695 333.12 819.383 333.984C818.087 334.832 817.055 335.96 816.287 337.368C815.535 338.776 815.159 340.32 815.159 342C815.159 343.728 815.551 345.296 816.335 346.704C817.119 348.096 818.167 349.208 819.479 350.04C820.791 350.856 822.231 351.264 823.799 351.264ZM871.358 330H874.718V354H871.358L871.238 349.536C870.454 351.056 869.358 352.288 867.95 353.232C866.542 354.16 864.862 354.624 862.91 354.624C861.15 354.624 859.502 354.296 857.966 353.64C856.43 352.968 855.078 352.048 853.91 350.88C852.742 349.712 851.83 348.36 851.174 346.824C850.518 345.288 850.19 343.64 850.19 341.88C850.19 340.152 850.51 338.528 851.15 337.008C851.806 335.488 852.702 334.152 853.838 333C854.99 331.848 856.318 330.952 857.822 330.312C859.342 329.656 860.966 329.328 862.694 329.328C864.694 329.328 866.438 329.808 867.926 330.768C869.414 331.712 870.598 332.952 871.478 334.488L871.358 330ZM862.838 351.36C864.55 351.36 866.022 350.944 867.254 350.112C868.486 349.264 869.43 348.128 870.086 346.704C870.758 345.28 871.094 343.712 871.094 342C871.094 340.24 870.758 338.656 870.086 337.248C869.414 335.824 868.462 334.696 867.23 333.864C865.998 333.032 864.534 332.616 862.838 332.616C861.142 332.616 859.59 333.04 858.182 333.888C856.79 334.72 855.678 335.848 854.846 337.272C854.03 338.696 853.622 340.272 853.622 342C853.622 343.744 854.046 345.328 854.894 346.752C855.742 348.16 856.862 349.28 858.254 350.112C859.662 350.944 861.19 351.36 862.838 351.36ZM903.316 333.36H897.58L897.556 354H894.196L894.22 333.36H889.876V330H894.22L894.196 322.464H897.556L897.58 330H903.316V333.36ZM906.639 344.808V330H909.999V344.136C909.999 345.448 910.319 346.64 910.959 347.712C911.599 348.784 912.455 349.64 913.527 350.28C914.615 350.92 915.807 351.24 917.103 351.24C918.415 351.24 919.599 350.92 920.655 350.28C921.727 349.64 922.583 348.784 923.223 347.712C923.863 346.64 924.183 345.448 924.183 344.136V330H927.543L927.567 354H924.207L924.183 350.64C923.335 351.856 922.231 352.824 920.871 353.544C919.527 354.264 918.055 354.624 916.455 354.624C914.647 354.624 912.999 354.184 911.511 353.304C910.023 352.424 908.839 351.24 907.959 349.752C907.079 348.264 906.639 346.616 906.639 344.808ZM951.296 354.456C949.984 354.424 948.704 354.184 947.456 353.736C946.208 353.288 945.12 352.68 944.192 351.912C943.264 351.144 942.6 350.272 942.2 349.296L945.104 348.048C945.36 348.672 945.832 349.248 946.52 349.776C947.224 350.288 948.024 350.704 948.92 351.024C949.816 351.328 950.704 351.48 951.584 351.48C952.56 351.48 953.472 351.32 954.32 351C955.168 350.68 955.856 350.224 956.384 349.632C956.928 349.024 957.2 348.312 957.2 347.496C957.2 346.616 956.912 345.928 956.336 345.432C955.76 344.92 955.032 344.52 954.152 344.232C953.272 343.928 952.368 343.64 951.44 343.368C949.744 342.904 948.248 342.392 946.952 341.832C945.656 341.272 944.64 340.56 943.904 339.696C943.184 338.816 942.824 337.688 942.824 336.312C942.824 334.856 943.232 333.6 944.048 332.544C944.88 331.472 945.96 330.648 947.288 330.072C948.632 329.48 950.064 329.184 951.584 329.184C953.536 329.184 955.312 329.608 956.912 330.456C958.528 331.304 959.696 332.432 960.416 333.84L957.704 335.448C957.416 334.792 956.96 334.224 956.336 333.744C955.712 333.264 955 332.888 954.2 332.616C953.416 332.344 952.616 332.2 951.8 332.184C950.776 332.168 949.824 332.32 948.944 332.64C948.064 332.944 947.352 333.4 946.808 334.008C946.28 334.616 946.016 335.36 946.016 336.24C946.016 337.12 946.28 337.792 946.808 338.256C947.336 338.704 948.048 339.072 948.944 339.36C949.856 339.632 950.88 339.952 952.016 340.32C953.472 340.784 954.84 341.312 956.12 341.904C957.4 342.496 958.432 343.232 959.216 344.112C960 344.992 960.384 346.104 960.368 347.448C960.368 348.888 959.936 350.144 959.072 351.216C958.208 352.288 957.088 353.112 955.712 353.688C954.336 354.248 952.864 354.504 951.296 354.456ZM974.878 354.624C972.67 354.624 970.654 354.056 968.83 352.92C967.022 351.784 965.574 350.264 964.486 348.36C963.414 346.44 962.878 344.32 962.878 342C962.878 340.24 963.19 338.6 963.814 337.08C964.438 335.544 965.294 334.2 966.382 333.048C967.486 331.88 968.766 330.968 970.222 330.312C971.678 329.656 973.23 329.328 974.878 329.328C976.654 329.328 978.286 329.68 979.774 330.384C981.278 331.088 982.566 332.072 983.638 333.336C984.726 334.6 985.542 336.08 986.086 337.776C986.646 339.472 986.878 341.304 986.781 343.272H966.43C966.622 344.792 967.102 346.152 967.87 347.352C968.654 348.552 969.646 349.504 970.846 350.208C972.062 350.896 973.406 351.248 974.878 351.264C976.478 351.264 977.918 350.848 979.198 350.016C980.494 349.184 981.534 348.04 982.318 346.584L985.726 347.376C984.766 349.504 983.318 351.248 981.382 352.608C979.446 353.952 977.278 354.624 974.878 354.624ZM966.334 340.56H983.398C983.286 339.072 982.83 337.712 982.03 336.48C981.246 335.232 980.23 334.24 978.982 333.504C977.734 332.752 976.366 332.376 974.878 332.376C973.39 332.376 972.03 332.744 970.798 333.48C969.566 334.2 968.558 335.184 967.773 336.432C966.99 337.664 966.51 339.04 966.334 340.56ZM990.896 354V330H994.256V333.312C995.104 332.096 996.208 331.128 997.568 330.408C998.928 329.688 1000.41 329.328 1002.01 329.328C1002.94 329.328 1003.83 329.448 1004.7 329.688L1003.33 333.024C1002.66 332.816 1002 332.712 1001.36 332.712C1000.06 332.712 998.872 333.032 997.784 333.672C996.712 334.312 995.856 335.168 995.216 336.24C994.576 337.312 994.256 338.504 994.256 339.816V354H990.896ZM1019.64 354H1015.37L1006.61 329.928H1010.19L1017.51 350.064L1024.83 329.928H1028.4L1019.64 354ZM1032.38 330H1035.74V354H1032.38V330ZM1034.08 325.8C1033.54 325.8 1033.08 325.624 1032.69 325.272C1032.32 324.904 1032.14 324.448 1032.14 323.904C1032.14 323.36 1032.32 322.912 1032.69 322.56C1033.08 322.192 1033.54 322.008 1034.08 322.008C1034.61 322.008 1035.06 322.192 1035.43 322.56C1035.81 322.912 1036 323.36 1036 323.904C1036 324.448 1035.82 324.904 1035.45 325.272C1035.08 325.624 1034.63 325.8 1034.08 325.8ZM1058.42 347.976L1061.42 349.608C1060.33 351.128 1058.95 352.344 1057.27 353.256C1055.61 354.168 1053.8 354.624 1051.85 354.624C1049.64 354.624 1047.62 354.056 1045.8 352.92C1043.99 351.784 1042.54 350.264 1041.45 348.36C1040.38 346.44 1039.85 344.32 1039.85 342C1039.85 340.24 1040.16 338.6 1040.78 337.08C1041.41 335.544 1042.26 334.2 1043.35 333.048C1044.45 331.88 1045.73 330.968 1047.19 330.312C1048.65 329.656 1050.2 329.328 1051.85 329.328C1053.8 329.328 1055.61 329.784 1057.27 330.696C1058.95 331.608 1060.33 332.832 1061.42 334.368L1058.42 335.976C1057.59 334.92 1056.59 334.112 1055.42 333.552C1054.25 332.976 1053.06 332.688 1051.85 332.688C1050.23 332.688 1048.77 333.12 1047.45 333.984C1046.14 334.832 1045.1 335.96 1044.33 337.368C1043.58 338.776 1043.21 340.32 1043.21 342C1043.21 343.68 1043.59 345.224 1044.36 346.632C1045.14 348.04 1046.19 349.168 1047.5 350.016C1048.81 350.848 1050.26 351.264 1051.85 351.264C1053.16 351.264 1054.39 350.96 1055.54 350.352C1056.69 349.744 1057.65 348.952 1058.42 347.976ZM1065.33 330H1068.69V354H1065.33V330ZM1067.04 325.8C1066.49 325.8 1066.03 325.624 1065.65 325.272C1065.28 324.904 1065.09 324.448 1065.09 323.904C1065.09 323.36 1065.28 322.912 1065.65 322.56C1066.03 322.192 1066.49 322.008 1067.04 322.008C1067.57 322.008 1068.01 322.192 1068.38 322.56C1068.77 322.912 1068.96 323.36 1068.96 323.904C1068.96 324.448 1068.77 324.904 1068.41 325.272C1068.04 325.624 1067.58 325.8 1067.04 325.8ZM1084.8 354.624C1082.59 354.624 1080.58 354.056 1078.75 352.92C1076.94 351.784 1075.5 350.264 1074.41 348.36C1073.34 346.44 1072.8 344.32 1072.8 342C1072.8 340.24 1073.11 338.6 1073.74 337.08C1074.36 335.544 1075.22 334.2 1076.3 333.048C1077.41 331.88 1078.69 330.968 1080.14 330.312C1081.6 329.656 1083.15 329.328 1084.8 329.328C1087.01 329.328 1089.02 329.896 1090.82 331.032C1092.65 332.168 1094.1 333.696 1095.17 335.616C1096.26 337.536 1096.8 339.664 1096.8 342C1096.8 343.744 1096.49 345.376 1095.86 346.896C1095.24 348.416 1094.38 349.76 1093.27 350.928C1092.18 352.08 1090.91 352.984 1089.46 353.64C1088.02 354.296 1086.46 354.624 1084.8 354.624ZM1084.8 351.264C1086.43 351.264 1087.9 350.84 1089.19 349.992C1090.5 349.128 1091.54 347.992 1092.29 346.584C1093.06 345.176 1093.44 343.648 1093.44 342C1093.44 340.32 1093.06 338.776 1092.29 337.368C1091.52 335.944 1090.48 334.808 1089.17 333.96C1087.87 333.112 1086.42 332.688 1084.8 332.688C1083.17 332.688 1081.7 333.12 1080.38 333.984C1079.09 334.832 1078.06 335.96 1077.29 337.368C1076.54 338.776 1076.16 340.32 1076.16 342C1076.16 343.728 1076.55 345.296 1077.34 346.704C1078.12 348.096 1079.17 349.208 1080.48 350.04C1081.79 350.856 1083.23 351.264 1084.8 351.264Z" fill="black"/>
<path fill-rule="evenodd" clip-rule="evenodd" d="M228.598 353.751C203.481 365.829 186.145 391.513 186.145 421.247C186.145 450.981 203.481 476.665 228.598 488.743V556.299C167.539 541.705 122.145 486.777 122.145 421.247C122.145 355.717 167.539 300.789 228.598 286.195V353.751Z" fill="url(#paint0_linear_24_11)"/>
<path d="M371.862 255.138C386.916 316.367 349.483 378.207 288.254 393.261C227.024 408.315 165.185 370.882 150.131 309.653C135.077 248.423 172.51 186.584 233.739 171.53C294.968 156.476 356.808 193.909 371.862 255.138Z" fill="url(#paint1_linear_24_11)"/>
<path d="M276.361 169.236C262.529 167.354 248.117 167.995 233.739 171.53C172.51 186.584 135.077 248.423 150.131 309.653C165.185 370.882 227.024 408.315 288.254 393.261C302.632 389.726 315.698 383.611 327.08 375.53C288.613 361.182 257.68 328.678 247.138 285.802C236.597 242.927 248.932 199.785 276.361 169.236Z" fill="url(#paint2_linear_24_11)"/>
<path d="M150.584 178.31L105 173.472L142.588 220.236C151.978 200.071 167.347 182.433 187.941 170.256C200.662 162.734 214.247 157.963 228.006 155.765L228.086 155.753C234.082 154.799 240.111 154.334 246.116 154.343L229.981 94L211.773 139.402L169.118 132.701L150.584 178.31Z" fill="url(#paint3_linear_24_11)"/>
</g>
<defs>
<linearGradient id="paint0_linear_24_11" x1="122.145" y1="560.046" x2="277.908" y2="317.95" gradientUnits="userSpaceOnUse">
<stop offset="0.295" stop-color="white" stop-opacity="0"/>
<stop offset="0.735" stop-color="#4D7C0F"/>
</linearGradient>
<linearGradient id="paint1_linear_24_11" x1="150.131" y1="309.653" x2="371.862" y2="255.138" gradientUnits="userSpaceOnUse">
<stop offset="0.436666" stop-color="#BEF264"/>
<stop offset="1" stop-color="#F7FEE7"/>
</linearGradient>
<linearGradient id="paint2_linear_24_11" x1="344.605" y1="144.272" x2="177.388" y2="420.518" gradientUnits="userSpaceOnUse">
<stop offset="0.151666" stop-color="#A3E635"/>
<stop offset="0.856666" stop-color="#4D7C0F"/>
</linearGradient>
<linearGradient id="paint3_linear_24_11" x1="221.735" y1="123.933" x2="167.987" y2="203.059" gradientUnits="userSpaceOnUse">
<stop stop-color="#EAB308"/>
<stop offset="1" stop-color="#CA8A04"/>
</linearGradient>
<clipPath id="clip0_24_11">
<rect width="1280" height="514" rx="32" fill="white"/>
</clipPath>
</defs>
</svg>
